<svg width="595" height="632" viewBox="0 0 595 632" fill="none" xmlns="http://www.w3.org/2000/svg">
<path d="M39.4385 570.347C63.1602 603.53 102.009 619.43 139.139 631.183C100.978 632.911 40.4695 626.344 26.374 583.481C25.3426 580.025 21.9053 567.581 21.9053 564.815V540.619L39.4385 570.347ZM9.87207 554.1C11.2472 573.111 10.5598 594.197 24.6553 608.715V609.061C32.2186 616.665 42.8762 621.159 48.7207 630.491C12.9664 628.417 -15.9123 583.827 9.87207 554.1ZM38.4072 520.915C50.7837 526.1 61.441 534.05 73.1299 539.927C141.201 575.184 220.961 593.159 297.283 578.986C297.971 581.752 296.252 582.098 294.877 583.826C278.031 601.455 223.025 609.404 199.303 610.441C136.389 612.861 59.7224 585.554 38.4072 520.915ZM475.712 349.812C446.146 434.499 379.449 512.965 291.438 538.198C211.335 561.358 128.824 539.581 56.9717 502.249L57.6592 498.793C178.674 494.991 316.192 478.744 416.923 405.809C439.957 389.217 456.803 370.551 475.712 349.812ZM592.945 0C596.727 41.8253 590.195 86.071 578.85 126.168C515.935 344.973 293.157 443.141 86.5381 475.979L175.925 425.857C319.286 341.17 473.649 216.385 556.503 69.1328C568.192 48.3931 576.787 24.5426 588.476 4.83984C589.507 3.11153 590.195 0.345663 592.602 0H592.945Z" fill="white" fill-opacity="0.1"/>
</svg>
